<svg width="128" height="64" viewBox="0 0 128 64" fill="none" xmlns="http://www.w3.org/2000/svg">
<circle cx="112" cy="16" r="14" stroke="#FFF7F0" stroke-width="4"/>
<rect x="64" width="32" height="32" fill="#755CDE"/>
<rect x="96" y="32" width="4" height="4" fill="#030303"/>
<rect x="110" y="32" width="4" height="4" fill="#030303"/>
<rect x="124" y="32" width="4" height="4" fill="#030303"/>
<rect x="96" y="46" width="4" height="4" fill="#030303"/>
<rect x="110" y="46" width="4" height="4" fill="#030303"/>
<rect x="124" y="46" width="4" height="4" fill="#030303"/>
<rect x="96" y="60" width="4" height="4" fill="#030303"/>
<rect x="110" y="60" width="4" height="4" fill="#030303"/>
<rect x="124" y="60" width="4" height="4" fill="#030303"/>
<path fill-rule="evenodd" clip-rule="evenodd" d="M64 32L96 64V32H64Z" fill="#F39E9E"/>
<rect x="32" y="32" width="4" height="4" fill="#030303"/>
<rect x="46" y="32" width="4" height="4" fill="#030303"/>
<rect x="60" y="32" width="4" height="4" fill="#030303"/>
<rect x="32" y="56" width="4" height="4" fill="#030303"/>
<rect x="46" y="56" width="4" height="4" fill="#030303"/>
<rect x="60" y="56" width="4" height="4" fill="#030303"/>
<rect x="32" y="60" width="4" height="4" fill="#030303"/>
<rect x="46" y="60" width="4" height="4" fill="#030303"/>
<rect x="60" y="60" width="4" height="4" fill="#030303"/>
<rect x="32" width="4" height="4" fill="#030303"/>
<rect x="46" width="4" height="4" fill="#030303"/>
<rect x="60" width="4" height="4" fill="#030303"/>
<rect x="32" y="4" width="4" height="4" fill="#030303"/>
<rect x="46" y="4" width="4" height="4" fill="#030303"/>
<rect x="60" y="4" width="4" height="4" fill="#030303"/>
<rect x="32" y="28" width="4" height="4" fill="#030303"/>
<rect x="46" y="28" width="4" height="4" fill="#030303"/>
<rect x="60" y="28" width="4" height="4" fill="#030303"/>
<path fill-rule="evenodd" clip-rule="evenodd" d="M-3.05176e-05 32L32 64V32H-3.05176e-05Z" fill="#61C4B7"/>
<path fill-rule="evenodd" clip-rule="evenodd" d="M32 0L-3.05176e-05 32V0H32Z" fill="#FFF7F0"/>
</svg>
